<svg id="OST_VIEW_icon" xmlns="http://www.w3.org/2000/svg" width="239.06" height="53" viewBox="0 0 239.06 53">
<defs>
    <style>
      .cls-1 {
        fill: #27b8d2;
      }

      .cls-1, .cls-2 {
        fill-rule: evenodd;
      }

      .cls-2 {
        fill: #34445b;
      }
    </style>
  </defs>
  <path id="view_copy" data-name="view copy" class="cls-1" d="M6328.91,696.7h5.81l13.92-34.965h-7.85l-6.84,19.262a53.341,53.341,0,0,0-1.99,6.437h-0.24a66.635,66.635,0,0,0-1.99-6.534l-6.93-19.165h-7.81Zm24.58-34.965v34.526h6.79V661.731h-6.79Zm15.28,0v34.526h20.8l0.68-5.9h-14.69V681.53h13.33v-5.706h-13.33v-8.193h14.69l-0.68-5.9h-20.8Zm36.32,34.965h5.63l5.09-16.093q0.945-2.926,1.89-6.291h0.19c0.68,2.243,1.31,4.34,1.94,6.34l5.05,16.044h5.62l10.57-34.965h-7.47l-4.46,17.263c-0.58,2.194-1.21,4.681-1.79,7.51h-0.15c-0.72-2.634-1.45-5.072-2.18-7.559l-5.28-17.019h-3.88l-5.29,17.019c-0.73,2.487-1.45,4.925-2.18,7.559h-0.15c-0.58-2.829-1.21-5.316-1.79-7.51l-4.46-17.263h-7.47Z" transform="translate(-6202 -644)"/>
  <path id="ost_logo_copy" data-name="ost logo copy" class="cls-2" d="M6222.35,660.467l4.62-7.225a4.669,4.669,0,1,0-2.96-7.091,4.7,4.7,0,0,0,.19,5.31l-5.74,8.976A18.275,18.275,0,1,0,6222.35,660.467Zm-2.1,27.923a9.725,9.725,0,1,1,9.07-13.16,5.615,5.615,0,1,0-.01,6.9A9.7,9.7,0,0,1,6220.25,688.39Zm40.56-13.068c-6.06-2.33-6.81-3.381-6.81-5.034s1.49-3,4.19-3a6.907,6.907,0,0,1,6.44,3.979l0.67,0.076,5.55-3.605c-2.03-4.506-7.04-7.436-13.33-7.436-8.09,0-13.11,4.357-13.11,10.139,0,4.808,2.4,8.038,10.56,11.043,5.54,1.953,6.74,3.379,6.74,5.032,0,2.028-1.87,3.38-4.87,3.38-3.07,0-5.69-1.727-7.49-4.658l-0.52-.074-5.84,3.907c2.77,5.107,7.79,7.811,14.38,7.811,8.46,0,13.85-4.357,13.85-10.366C6271.22,681.406,6268.6,678.4,6260.81,675.322Zm39.17,12.469-0.67-.377a8.788,8.788,0,0,1-3.67.9c-3.45,0-4.72-1.277-4.72-5.409V669.461h9.21v-7.736h-9.21v-13.52h-2.1l-7.79,4.582v8.938h-6.14v7.736h6.07v16c0,7.511,4.19,11.417,11.91,11.417a21.048,21.048,0,0,0,7.33-1.276Z" transform="translate(-6202 -644)"/>
</svg>
